<mxfile host="Electron" modified="2024-01-06T00:24:15.262Z" agent="Mozilla/5.0 (Windows NT 10.0; Win64; x64) AppleWebKit/537.36 (KHTML, like Gecko) draw.io/22.1.16 Chrome/120.0.6099.109 Electron/28.1.0 Safari/537.36" etag="4zbLhyir65oqrm3g8Xar" version="22.1.16" type="device">
  <diagram name="Page-1" id="ImGA_BU5cl2Fdo_qvqDq">
    <mxGraphModel dx="863" dy="505" grid="0" gridSize="10" guides="1" tooltips="1" connect="1" arrows="1" fold="1" page="1" pageScale="1" pageWidth="850" pageHeight="1100" math="0" shadow="0">
      <root>
        <mxCell id="0" />
        <mxCell id="1" parent="0" />
        <mxCell id="zeqLb9sDKWrayDaI19oI-2" value="Gateway Microservice" style="shape=folder;fontStyle=1;spacingTop=10;tabWidth=40;tabHeight=14;tabPosition=left;html=1;whiteSpace=wrap;fillColor=#FFFFFF;" vertex="1" parent="1">
          <mxGeometry x="352" y="260" width="156" height="84" as="geometry" />
        </mxCell>
        <mxCell id="zeqLb9sDKWrayDaI19oI-3" value="User Management Microservice" style="shape=folder;fontStyle=1;spacingTop=10;tabWidth=40;tabHeight=14;tabPosition=left;html=1;whiteSpace=wrap;fillColor=#FFFFFF;" vertex="1" parent="1">
          <mxGeometry x="107" y="148" width="156" height="84" as="geometry" />
        </mxCell>
        <mxCell id="zeqLb9sDKWrayDaI19oI-4" value="GitHub IntegrationMicroservice" style="shape=folder;fontStyle=1;spacingTop=10;tabWidth=40;tabHeight=14;tabPosition=left;html=1;whiteSpace=wrap;fillColor=#FFFFFF;" vertex="1" parent="1">
          <mxGeometry x="558" y="50" width="156" height="84" as="geometry" />
        </mxCell>
        <mxCell id="zeqLb9sDKWrayDaI19oI-5" value="Score Computation Microservice" style="shape=folder;fontStyle=1;spacingTop=10;tabWidth=40;tabHeight=14;tabPosition=left;html=1;whiteSpace=wrap;fillColor=#FFFFFF;" vertex="1" parent="1">
          <mxGeometry x="119" y="334" width="156" height="84" as="geometry" />
        </mxCell>
        <mxCell id="zeqLb9sDKWrayDaI19oI-6" value="Tournament Microservice" style="shape=folder;fontStyle=1;spacingTop=10;tabWidth=40;tabHeight=14;tabPosition=left;html=1;whiteSpace=wrap;fillColor=#FFF48C;" vertex="1" parent="1">
          <mxGeometry x="526" y="430" width="156" height="84" as="geometry" />
        </mxCell>
        <mxCell id="zeqLb9sDKWrayDaI19oI-7" value="Battle Microservice" style="shape=folder;fontStyle=1;spacingTop=10;tabWidth=40;tabHeight=14;tabPosition=left;html=1;whiteSpace=wrap;fillColor=#FFF48C;" vertex="1" parent="1">
          <mxGeometry x="237" y="466" width="156" height="84" as="geometry" />
        </mxCell>
        <mxCell id="zeqLb9sDKWrayDaI19oI-8" value="Notification Microservice" style="shape=folder;fontStyle=1;spacingTop=10;tabWidth=40;tabHeight=14;tabPosition=left;html=1;whiteSpace=wrap;fillColor=#FFF48C;" vertex="1" parent="1">
          <mxGeometry x="608" y="171" width="156" height="84" as="geometry" />
        </mxCell>
        <mxCell id="zeqLb9sDKWrayDaI19oI-11" value="DBMS" style="shape=folder;fontStyle=1;spacingTop=10;tabWidth=40;tabHeight=14;tabPosition=left;html=1;whiteSpace=wrap;fillColor=#FFF48C;" vertex="1" parent="1">
          <mxGeometry x="343" y="87" width="124" height="67" as="geometry" />
        </mxCell>
        <mxCell id="zeqLb9sDKWrayDaI19oI-13" value="Event Bus" style="shape=folder;fontStyle=1;spacingTop=10;tabWidth=40;tabHeight=14;tabPosition=left;html=1;whiteSpace=wrap;fillColor=#FFF48C;" vertex="1" parent="1">
          <mxGeometry x="632" y="303" width="129" height="65" as="geometry" />
        </mxCell>
        <mxCell id="zeqLb9sDKWrayDaI19oI-25" value="" style="endArrow=none;dashed=1;html=1;rounded=0;entryX=0;entryY=0;entryDx=98;entryDy=14;entryPerimeter=0;exitX=0.048;exitY=0.988;exitDx=0;exitDy=0;exitPerimeter=0;" edge="1" parent="1" source="zeqLb9sDKWrayDaI19oI-11" target="zeqLb9sDKWrayDaI19oI-7">
          <mxGeometry width="50" height="50" relative="1" as="geometry">
            <mxPoint x="309" y="372" as="sourcePoint" />
            <mxPoint x="369" y="469" as="targetPoint" />
            <Array as="points">
              <mxPoint x="333" y="320" />
            </Array>
          </mxGeometry>
        </mxCell>
        <mxCell id="zeqLb9sDKWrayDaI19oI-26" value="" style="endArrow=none;dashed=1;html=1;rounded=0;entryX=0.893;entryY=0.117;entryDx=0;entryDy=0;entryPerimeter=0;exitX=0;exitY=0;exitDx=0;exitDy=39.5;exitPerimeter=0;" edge="1" parent="1" source="zeqLb9sDKWrayDaI19oI-13" target="zeqLb9sDKWrayDaI19oI-7">
          <mxGeometry width="50" height="50" relative="1" as="geometry">
            <mxPoint x="401" y="381" as="sourcePoint" />
            <mxPoint x="433" y="478" as="targetPoint" />
          </mxGeometry>
        </mxCell>
        <mxCell id="zeqLb9sDKWrayDaI19oI-29" value="" style="endArrow=none;dashed=1;html=1;rounded=0;entryX=0;entryY=0;entryDx=84.5;entryDy=14;entryPerimeter=0;exitX=0.673;exitY=1.012;exitDx=0;exitDy=0;exitPerimeter=0;" edge="1" parent="1" source="zeqLb9sDKWrayDaI19oI-8" target="zeqLb9sDKWrayDaI19oI-13">
          <mxGeometry width="50" height="50" relative="1" as="geometry">
            <mxPoint x="780" y="247.14" as="sourcePoint" />
            <mxPoint x="812" y="344.14" as="targetPoint" />
          </mxGeometry>
        </mxCell>
        <mxCell id="zeqLb9sDKWrayDaI19oI-32" value="" style="endArrow=none;dashed=1;html=1;rounded=0;entryX=0;entryY=0;entryDx=123.99999999999999;entryDy=40.5;entryPerimeter=0;exitX=0;exitY=0;exitDx=0;exitDy=49;exitPerimeter=0;" edge="1" parent="1" source="zeqLb9sDKWrayDaI19oI-8" target="zeqLb9sDKWrayDaI19oI-11">
          <mxGeometry width="50" height="50" relative="1" as="geometry">
            <mxPoint x="608" y="318.5" as="sourcePoint" />
            <mxPoint x="352" y="452.5" as="targetPoint" />
          </mxGeometry>
        </mxCell>
        <mxCell id="zeqLb9sDKWrayDaI19oI-33" value="" style="endArrow=none;dashed=1;html=1;rounded=0;entryX=0.765;entryY=0.141;entryDx=0;entryDy=0;entryPerimeter=0;exitX=0.079;exitY=0.994;exitDx=0;exitDy=0;exitPerimeter=0;" edge="1" parent="1" source="zeqLb9sDKWrayDaI19oI-8" target="zeqLb9sDKWrayDaI19oI-7">
          <mxGeometry width="50" height="50" relative="1" as="geometry">
            <mxPoint x="621.69" y="324.5" as="sourcePoint" />
            <mxPoint x="365.69" y="458.5" as="targetPoint" />
            <Array as="points">
              <mxPoint x="495" y="373" />
            </Array>
          </mxGeometry>
        </mxCell>
        <mxCell id="zeqLb9sDKWrayDaI19oI-34" value="" style="endArrow=none;dashed=1;html=1;rounded=0;entryX=0;entryY=0;entryDx=98;entryDy=14;entryPerimeter=0;exitX=0.5;exitY=1;exitDx=0;exitDy=0;exitPerimeter=0;" edge="1" parent="1" source="zeqLb9sDKWrayDaI19oI-13" target="zeqLb9sDKWrayDaI19oI-6">
          <mxGeometry width="50" height="50" relative="1" as="geometry">
            <mxPoint x="826.69" y="476.5" as="sourcePoint" />
            <mxPoint x="570.69" y="610.5" as="targetPoint" />
          </mxGeometry>
        </mxCell>
        <mxCell id="zeqLb9sDKWrayDaI19oI-35" value="" style="endArrow=none;dashed=1;html=1;rounded=0;entryX=0.442;entryY=0.157;entryDx=0;entryDy=0;entryPerimeter=0;" edge="1" parent="1" source="zeqLb9sDKWrayDaI19oI-11" target="zeqLb9sDKWrayDaI19oI-6">
          <mxGeometry width="50" height="50" relative="1" as="geometry">
            <mxPoint x="784" y="396" as="sourcePoint" />
            <mxPoint x="711" y="472" as="targetPoint" />
            <Array as="points">
              <mxPoint x="533" y="281" />
            </Array>
          </mxGeometry>
        </mxCell>
      </root>
    </mxGraphModel>
  </diagram>
</mxfile>
